HIERARCHY
ROOT Hips
{
	OFFSET 0.000000 0.000000 0.000000
	CHANNELS 6 Xposition Yposition Zposition Zrotation Yrotation Xrotation 
	JOINT LHipJoint
	{
		OFFSET 0.000000 0.000000 0.000000
		CHANNELS 3 Zrotation Yrotation Xrotation
		JOINT LeftUpLeg
		{
			OFFSET 1.363060 -1.794630 0.839290
			CHANNELS 3 Zrotation Yrotation Xrotation
			JOINT LeftLeg
			{
				OFFSET 2.448110 -6.726130 0.000000
				CHANNELS 3 Zrotation Yrotation Xrotation
				JOINT LeftFoot
				{
					OFFSET 2.562200 -7.039590 0.000000
					CHANNELS 3 Zrotation Yrotation Xrotation
					JOINT LeftToeBase
					{
						OFFSET 0.157640 -0.433110 2.322550
						CHANNELS 3 Zrotation Yrotation Xrotation
						End Site
						{
							OFFSET 0.000000 0.000000 0.000000
						}
					}
				}
			}
		}
	}
	JOINT RHipJoint
	{
		OFFSET 0.000000 0.000000 0.000000
		CHANNELS 3 Zrotation Yrotation Xrotation
		JOINT RightUpLeg
		{
			OFFSET -1.305520 -1.794630 0.839290
			CHANNELS 3 Zrotation Yrotation Xrotation
			JOINT RightLeg
			{
				OFFSET -2.542530 -6.985550 0.000000
				CHANNELS 3 Zrotation Yrotation Xrotation
				JOINT RightFoot
				{
					OFFSET -2.568260 -7.056230 0.000000
					CHANNELS 3 Zrotation Yrotation Xrotation
					JOINT RightToeBase
					{
						OFFSET -0.164730 -0.452590 2.363150
						CHANNELS 3 Zrotation Yrotation Xrotation
						End Site
						{
							OFFSET 0.000000 0.000000 0.000000
						}
					}
				}
			}
		}
	}
	JOINT LowerBack
	{
		OFFSET 0.000000 0.000000 0.000000
		CHANNELS 3 Zrotation Yrotation Xrotation
		JOINT Spine
		{
			OFFSET 0.028270 2.035590 -0.193380
			CHANNELS 3 Zrotation Yrotation Xrotation
			JOINT Spine1
			{
				OFFSET 0.056720 2.048850 -0.042750
				CHANNELS 3 Zrotation Yrotation Xrotation
				JOINT Neck
				{
					OFFSET 0.000000 0.000000 0.000000
					CHANNELS 3 Zrotation Yrotation Xrotation
					JOINT Neck1
					{
						OFFSET -0.054170 1.746240 0.172020
						CHANNELS 3 Zrotation Yrotation Xrotation
						JOINT Head
						{
							OFFSET 0.104070 1.761360 -0.123970
							CHANNELS 3 Zrotation Yrotation Xrotation
							End Site
							{
								OFFSET 0.000000 0.000000 0.000000
							}
						}
					}
				}
				JOINT LeftShoulder
				{
					OFFSET 0.000000 0.000000 0.000000
					CHANNELS 3 Zrotation Yrotation Xrotation
					JOINT LeftArm
					{
						OFFSET 3.362410 1.200890 -0.311210
						CHANNELS 3 Zrotation Yrotation Xrotation
						JOINT LeftForeArm
						{
							OFFSET 4.983000 -0.000000 -0.000000
							CHANNELS 3 Zrotation Yrotation Xrotation
							JOINT LeftHand
							{
								OFFSET 3.483560 -0.000000 -0.000000
								CHANNELS 3 Zrotation Yrotation Xrotation
								JOINT LeftFingerBase
								{
									OFFSET 0.000000 0.000000 0.000000
									CHANNELS 3 Zrotation Yrotation Xrotation
									JOINT LeftHandIndex1
									{
										OFFSET 0.715260 -0.000000 -0.000000
										CHANNELS 3 Zrotation Yrotation Xrotation
										End Site
										{
											OFFSET 0.000000 0.000000 0.000000
										}
									}
								}
								JOINT LThumb
								{
									OFFSET 0.000000 0.000000 0.000000
									CHANNELS 3 Zrotation Yrotation Xrotation
									End Site
									{
										OFFSET 0.000000 0.000000 0.000000
									}
								}
							}
						}
					}
				}
				JOINT RightShoulder
				{
					OFFSET 0.000000 0.000000 0.000000
					CHANNELS 3 Zrotation Yrotation Xrotation
					JOINT RightArm
					{
						OFFSET -3.136600 1.374050 -0.404650
						CHANNELS 3 Zrotation Yrotation Xrotation
						JOINT RightForeArm
						{
							OFFSET -5.241900 -0.000000 -0.000000
							CHANNELS 3 Zrotation Yrotation Xrotation
							JOINT RightHand
							{
								OFFSET -3.444170 -0.000000 -0.000000
								CHANNELS 3 Zrotation Yrotation Xrotation
								JOINT RightFingerBase
								{
									OFFSET 0.000000 0.000000 0.000000
									CHANNELS 3 Zrotation Yrotation Xrotation
									JOINT RightHandIndex1
									{
										OFFSET -0.622530 -0.000000 -0.000000
										CHANNELS 3 Zrotation Yrotation Xrotation
										End Site
										{
											OFFSET 0.000000 0.000000 0.000000
										}
									}
								}
								JOINT RThumb
								{
									OFFSET 0.000000 0.000000 0.000000
									CHANNELS 3 Zrotation Yrotation Xrotation
									End Site
									{
										OFFSET 0.000000 0.000000 0.000000
									}
								}
							}
						}
					}
				}
			}
		}
	}
}
MOTION
Frames: 5
Frame Time: 0.008333
4.865673 17.895115 -29.509833 0.575390 2.733430 2.162981 -2.583392 6.399658 7.370023 -17.871434 -7.975349 3.801533 0.611944 7.022528 28.693026 2.525900 -11.052057 17.983569 0.487400 -4.476700 -12.421700 3.356073 -3.336865 1.643880 14.251433 12.781417 -29.214527 -0.055822 -7.155323 21.831001 1.609895 -9.734142 18.461483 -0.193300 -2.831100 7.808700 -1.307306 -3.041965 6.164145 3.872709 -3.685158 2.953967 3.765687 -2.199629 -6.613239 -4.913410 -4.170056 -18.593382 2.932477 -4.346681 16.236408 -0.427600 -1.848100 9.423100 -7.361412 2.120917 -1.184801 -77.995824 -4.118795 29.755093 15.664710 -25.876009 -4.018730 -0.791926 -1.065864 -6.718418 28.712468 17.408930 10.149000 -7.125000 0.000000 0.000000 1.535800 50.855000 0.221600 11.674037 -1.868898 -2.451101 75.083279 -0.739566 -0.407525 -7.193058 16.917791 -1.360493 1.263883 -0.762653 10.542163 -19.491653 19.767959 -7.479100 7.125000 0.000000 0.000000 4.846200 -8.611300 4.081000 
4.844068 17.935398 -29.296711 0.243055 2.596127 2.124494 -2.509469 6.335157 7.285112 -17.387949 -7.138439 2.798036 0.985634 7.598232 30.673773 2.685685 -12.355870 20.741060 1.425200 -7.549100 -21.352700 3.362372 -3.360119 1.741754 14.997066 12.505080 -28.846027 -0.124621 -7.244439 22.299795 1.467119 -9.280688 18.595728 -0.307800 -3.566800 9.861000 -1.067817 -2.957304 6.311501 3.976906 -3.551929 2.882615 3.719604 -2.125275 -6.785881 -4.715287 -4.155072 -18.894843 2.753552 -4.324121 16.441864 -0.518100 -1.837000 9.540300 -7.368631 2.149051 -1.190020 -78.210617 -3.745453 29.466557 15.508225 -25.636874 -3.957245 -0.822006 -0.882233 -6.542018 28.729093 12.332377 7.356400 -7.125000 0.000000 0.000000 2.160400 44.969400 -0.001600 11.675957 -1.865240 -2.438744 75.136151 -0.748660 -1.288298 -7.052198 16.658887 -1.314547 1.265566 -0.757051 11.357963 -19.680835 19.281089 -7.373500 7.125000 0.000000 0.000000 4.680800 -9.118200 3.893300 
4.820444 17.966594 -29.086516 0.274384 2.506731 2.049810 -2.641410 6.244896 7.170195 -17.044814 -6.960720 1.439789 1.310627 8.098232 31.798850 2.506981 -8.409961 30.517054 0.007600 -0.561200 -1.542100 3.398051 -3.389692 1.843245 15.181779 12.493624 -28.464184 -0.229585 -7.405508 22.923148 1.342173 -8.830552 18.536840 -0.431300 -4.214600 11.681100 -1.403580 -2.952512 6.727372 4.156725 -3.588800 2.255606 4.121148 -2.100786 -7.632859 -5.321999 -4.011846 -17.522622 2.994694 -4.134642 16.525340 -0.305000 -1.764800 9.345100 -7.351726 2.179848 -1.186488 -78.656669 -2.098856 29.198421 15.544487 -25.688914 -3.977650 -0.795554 -0.861509 -6.653815 28.011452 11.612423 6.748000 -7.125000 0.000000 0.000000 1.526900 44.043900 -0.036000 11.705163 -1.912404 -2.508792 74.759108 -2.010982 -1.192758 -6.998559 16.651674 -1.306677 1.281283 -0.725088 11.380266 -19.687626 18.860387 -7.217000 7.125000 0.000000 0.000000 4.636900 -9.592800 3.812200 
4.801161 17.988401 -28.882985 0.217575 2.571581 1.899655 -2.578871 6.207711 7.057544 -16.742428 -7.026476 0.698042 1.725110 8.665486 33.535961 2.680504 -8.504095 33.132587 0.033300 1.177600 3.237700 3.386956 -3.415491 1.960016 15.509419 12.310216 -28.010640 -0.332267 -7.546165 23.534109 1.254050 -8.393133 18.186976 -0.368600 -3.899600 10.794400 -1.242509 -2.806298 6.775404 3.966195 -3.386361 3.144963 3.856071 -2.025752 -6.785712 -4.534575 -4.436500 -21.031564 2.728423 -4.521520 17.347337 -0.589300 -1.886400 10.226000 -7.415284 2.241318 -1.216574 -78.478071 -3.789933 29.532611 15.416996 -25.513396 -3.900166 -0.762471 -1.023476 -6.984352 27.677177 16.099569 9.044100 -7.125000 0.000000 0.000000 0.671200 49.173400 0.069100 11.647553 -1.775887 -2.358564 75.307552 -0.059501 -2.376446 -6.936067 16.401417 -1.281551 1.240160 -0.754871 11.759931 -19.304949 18.947723 -7.106700 7.125000 0.000000 0.000000 4.913800 -9.522500 4.048500 
4.782584 18.036053 -28.682381 0.101771 2.577175 1.697567 -2.565689 6.054353 6.878943 -16.562017 -6.192042 -1.072727 2.013898 9.140642 35.229474 3.090680 -10.764913 36.062873 0.059800 -1.577300 -4.338900 3.406392 -3.440989 2.091500 15.891561 12.155280 -27.428228 -0.432949 -7.649186 24.046858 1.241149 -8.185557 17.857000 -0.567300 -4.823900 13.406900 -1.169144 -2.844025 6.924941 4.005715 -3.441252 2.961797 3.859731 -2.025040 -7.046156 -4.592275 -4.319328 -20.059622 2.667944 -4.440252 17.014416 -0.586000 -1.872500 9.939900 -7.401939 2.246045 -1.221103 -78.613713 -2.961106 29.600162 15.439056 -25.577851 -3.904874 -0.758291 -1.141852 -7.338070 28.177859 19.090104 10.815300 -7.125000 0.000000 0.000000 0.668800 52.689000 0.126600 11.668366 -1.805453 -2.397261 75.192780 -0.637067 -1.887727 -6.936185 16.447000 -1.290075 1.237503 -0.727027 11.538546 -19.067259 18.653608 -6.906800 7.125000 0.000000 0.000000 5.053300 -9.882300 4.127500 
